<svg width="31" height="31" viewBox="0 0 31 31" fill="none" xmlns="http://www.w3.org/2000/svg">
<rect x="1" y="1" width="28.5455" height="28.5455" rx="14.2727" fill="#F8F8F8"/>
<rect x="1" y="1" width="28.5455" height="28.5455" rx="14.2727" stroke="white" stroke-width="2"/>
<path d="M16.1148 10.8988L10.6415 16.6921C10.4348 16.9121 10.2348 17.3454 10.1948 17.6454L9.94818 19.8054C9.86151 20.5854 10.4215 21.1188 11.1948 20.9854L13.3415 20.6188C13.6415 20.5654 14.0615 20.3454 14.2682 20.1188L19.7415 14.3254C20.6882 13.3254 21.1148 12.1854 19.6415 10.7921C18.1748 9.41211 17.0615 9.89878 16.1148 10.8988Z" stroke="#247CFF" stroke-miterlimit="10" stroke-linecap="round" stroke-linejoin="round"/>
<path d="M15.2024 11.8666C15.4891 13.7066 16.9824 15.1133 18.8357 15.3" stroke="#247CFF" stroke-miterlimit="10" stroke-linecap="round" stroke-linejoin="round"/>
</svg>
